<svg xmlns="http://www.w3.org/2000/svg" width="475.1799621582031" height="312.0205993652344" viewBox="-263.17999267578125 -47.13029098510742 475.1799621582031 312.0205993652344"><title>Neo4j Graph Visualization</title><desc>Created using Neo4j (http://www.neo4j.com/)</desc><g class="layer relationships"><g class="relationship" transform="translate(-228.31720141811945 -18.130291110776895) rotate(451.6729269962011)"><path class="outline" fill="#A5ABB6" stroke="none" d="M 25 0.5 L 67.5525181822886 0.5 L 67.5525181822886 -0.5 L 25 -0.5 Z M 126.2689374022593 0.5 L 168.8214555845479 0.5 L 168.8214555845479 3.5 L 175.8214555845479 0 L 168.8214555845479 -3.5 L 168.8214555845479 -0.5 L 126.2689374022593 -0.5 Z"/><text text-anchor="middle" pointer-events="none" font-size="8px" fill="#000000" x="96.91072779227395" y="3" transform="rotate(180 96.91072779227395 0)" font-family="sans-serif">published_by</text></g><g class="relationship" transform="translate(-29.15690209501585 168.43335574091657) rotate(536.0457215867789)"><path class="outline" fill="#A5ABB6" stroke="none" d="M 25 0.5 L 69.8979459173955 0.5 L 69.8979459173955 -0.5 L 25 -0.5 Z M 128.6143651373662 0.5 L 173.5123110547617 0.5 L 173.5123110547617 3.5 L 180.5123110547617 0 L 173.5123110547617 -3.5 L 173.5123110547617 -0.5 L 128.6143651373662 -0.5 Z"/><text text-anchor="middle" pointer-events="none" font-size="8px" fill="#000000" x="99.25615552738086" y="3" transform="rotate(180 99.25615552738086 0)" font-family="sans-serif">published_by</text></g><g class="relationship" transform="translate(-29.15690209501585 168.43335574091657) rotate(272.41518575391314)"><path class="outline" fill="#D9C8AE" stroke="none" d="M 23.501098044470403,-8.88529069328569 L 24.79519326998301,-4.055661561840347 A 248.6321459585445 248.6321459585445 0 0 1 57.83311093821129,-10.547941906424114 L 57.20340923954652,-15.508130992608102 A 253.6321459585445 253.6321459585445 0 0 0 23.501098044470403,-8.88529069328569 Z M 113.6376133402368,-16.34232178954028 L 113.15479430759974,-11.365687808451924 A 248.6321459585445 248.6321459585445 0 0 1 146.37016907810477,-5.852740612967614 L 145.67970034178677,-2.933279545549955 L 157.65025027223447,-5.753906135983096 L 148.21141904161937,-13.637970126081374 L 147.52095030530137,-10.718509058663713 A 253.6321459585445 253.6321459585445 0 0 0 113.6376133402368,-16.34232178954028"/><text text-anchor="middle" pointer-events="none" font-size="8px" fill="#000000" x="85.43418522379426" y="-12.00016514662434" font-family="sans-serif">authored_by</text></g><g class="relationship" transform="translate(182.9999666728263 -3.550856942832418) rotate(182.75306247006836)"><path class="outline" fill="#D9C8AE" stroke="none" d="M 25 2.5 L 68.86223732669994 2.5 L 68.86223732669994 -2.5 L 25 -2.5 Z M 124.86223732669994 2.5 L 168.72447465339988 2.5 L 168.72447465339988 5.5 L 179.72447465339988 0 L 168.72447465339988 -5.5 L 168.72447465339988 -2.5 L 124.86223732669994 -2.5 Z"/><text text-anchor="middle" pointer-events="none" font-size="8px" fill="#000000" x="96.86223732669994" y="3" transform="rotate(180 96.86223732669994 0)" font-family="sans-serif">authored_by</text></g><g class="relationship" transform="translate(-228.31720141811945 -18.130291110776895) rotate(361.3145639105427)"><path class="outline" fill="#D9C8AE" stroke="none" d="M 25 2.5 L 69.9417159098827 2.5 L 69.9417159098827 -2.5 L 25 -2.5 Z M 125.9417159098827 2.5 L 170.8834318197654 2.5 L 170.8834318197654 5.5 L 181.8834318197654 0 L 170.8834318197654 -5.5 L 170.8834318197654 -2.5 L 125.9417159098827 -2.5 Z"/><text text-anchor="middle" pointer-events="none" font-size="8px" fill="#000000" x="97.9417159098827" y="3" font-family="sans-serif">authored_by</text></g><g class="relationship" transform="translate(-29.15690209501585 168.43335574091657) rotate(272.41518575391314)"><path class="outline" fill="#A5ABB6" stroke="none" d="M 24.018736134675446,6.953439040707552 L 24.277555179777966,5.987513214418485 A 253.51964057279076 253.51964057279076 0 0 0 59.454449483864714,12.792034965317299 L 59.33438455747509,13.784801006966092 A 254.51964057279076 254.51964057279076 0 0 1 24.018736134675446,6.953439040707552 Z M 115.59600970425058,14.324860088597944 L 115.4950244004098,13.329972171087547 A 253.51964057279076 253.51964057279076 0 0 0 150.79605883538568,7.201972745500897 L 150.07537156756425,4.289824077935982 L 157.71118693767403,6.005727231845087 L 151.7569751924809,11.08483763558745 L 151.03628792465946,8.172688968022536 A 254.51964057279076 254.51964057279076 0 0 1 115.59600970425058,14.324860088597944"/><text text-anchor="middle" pointer-events="none" font-size="8px" fill="#000000" x="87.45502737298709" y="18.114283346371764" font-family="sans-serif">reviewed_by</text></g><g class="relationship" transform="translate(-29.15690209501585 168.43335574091657) rotate(227.15447888109946)"><path class="outline" fill="#A5ABB6" stroke="none" d="M 25 0.5 L 33.95511344703755 0.5 L 33.95511344703755 -0.5 L 25 -0.5 Z M 88.07451728614888 0.5 L 97.02963073318642 0.5 L 97.02963073318642 3.5 L 104.02963073318642 0 L 97.02963073318642 -3.5 L 97.02963073318642 -0.5 L 88.07451728614888 -0.5 Z"/><text text-anchor="middle" pointer-events="none" font-size="8px" fill="#000000" x="61.01481536659321" y="3" transform="rotate(180 61.01481536659321 0)" font-family="sans-serif">has_citation</text></g><g class="relationship" transform="translate(-228.31720141811945 -18.130291110776895) rotate(399.53528731228334)"><path class="outline" fill="#A5ABB6" stroke="none" d="M 25 0.5 L 41.67339384695809 0.5 L 41.67339384695809 -0.5 L 25 -0.5 Z M 95.79279768606942 0.5 L 112.46619153302751 0.5 L 112.46619153302751 3.5 L 119.46619153302751 0 L 112.46619153302751 -3.5 L 112.46619153302751 -0.5 L 95.79279768606942 -0.5 Z"/><text text-anchor="middle" pointer-events="none" font-size="8px" fill="#000000" x="68.73309576651376" y="3" font-family="sans-serif">has_citation</text></g><g class="relationship" transform="translate(182.9999666728263 -3.550856942832418) rotate(525.5319589437735)"><path class="outline" fill="#A5ABB6" stroke="none" d="M 25 0.5 L 124.3014459372207 0.5 L 124.3014459372207 -0.5 L 25 -0.5 Z M 178.42084977633203 0.5 L 277.72229571355274 0.5 L 277.72229571355274 3.5 L 284.72229571355274 0 L 277.72229571355274 -3.5 L 277.72229571355274 -0.5 L 178.42084977633203 -0.5 Z"/><text text-anchor="middle" pointer-events="none" font-size="8px" fill="#000000" x="151.36114785677637" y="3" transform="rotate(180 151.36114785677637 0)" font-family="sans-serif">has_citation</text></g><g class="relationship" transform="translate(-29.15690209501585 168.43335574091657) rotate(360.7994872449417)"><path class="outline" fill="#A5ABB6" stroke="none" d="M 6.953439040707552 24.018736134675446 L 17.306200844808384 62.65576918623819 A 17.916697508022974 17.916697508022974 0 1 1 -17.306200844808384 62.65576918623819 L -8.765172356425198 30.780216918698923 L -4.901469051268926 31.815493099109005 L -6.4704761275630185 24.148145657226706 L -11.662949835292403 30.00375978339136 L -7.79924653013613 31.039035963801442 L -16.340275018519314 62.91458823134071 A 16.916697508022974 16.916697508022974 0 1 0 16.340275018519314 62.91458823134071 L 5.987513214418485 24.277555179777966 Z"/><text text-anchor="middle" pointer-events="none" font-size="8px" fill="#000000" x="0" y="94.20964923467838" font-family="sans-serif">cited_by</text></g><g class="relationship selected" transform="translate(-29.15690209501585 168.43335574091657) rotate(365.5532529031046)"><path class="outline" fill="#A5ABB6" stroke="none" d="M 25 0.5 L 55.12868595616695 0.5 L 55.12868595616695 -0.5 L 25 -0.5 Z M 112.91973209874507 0.5 L 143.04841805491202 0.5 L 143.04841805491202 3.5 L 150.04841805491202 0 L 143.04841805491202 -3.5 L 143.04841805491202 -0.5 L 112.91973209874507 -0.5 Z"/><text text-anchor="middle" pointer-events="none" font-size="8px" fill="#000000" x="84.02420902745601" y="3" font-family="sans-serif">has_keyword</text></g><g class="relationship" transform="translate(-228.31720141811945 -18.130291110776895) rotate(378.8664333782559)"><path class="outline" fill="#A5ABB6" stroke="none" d="M 25 0.5 L 134.38870714564797 0.5 L 134.38870714564797 -0.5 L 25 -0.5 Z M 179.5528879012632 0.5 L 288.9415950469112 0.5 L 288.9415950469112 3.5 L 295.9415950469112 0 L 288.9415950469112 -3.5 L 288.9415950469112 -0.5 L 179.5528879012632 -0.5 Z"/><text text-anchor="middle" pointer-events="none" font-size="8px" fill="#000000" x="156.9707975234556" y="3" font-family="sans-serif">edited_by</text></g><g class="relationship" transform="translate(-29.15690209501585 168.43335574091657) rotate(321.62470691588084)"><path class="outline" fill="#A5ABB6" stroke="none" d="M 25 0.5 L 40.59129350921137 0.5 L 40.59129350921137 -0.5 L 25 -0.5 Z M 85.7554742648266 0.5 L 101.34676777403797 0.5 L 101.34676777403797 3.5 L 108.34676777403797 0 L 101.34676777403797 -3.5 L 101.34676777403797 -0.5 L 85.7554742648266 -0.5 Z"/><text text-anchor="middle" pointer-events="none" font-size="8px" fill="#000000" x="63.173383887018986" y="3" font-family="sans-serif">edited_by</text></g><g class="relationship" transform="translate(182.9999666728263 -3.550856942832418) rotate(500.3457588163171)"><path class="outline" fill="#A5ABB6" stroke="none" d="M 25 0.5 L 43.808057912189895 0.5 L 43.808057912189895 -0.5 L 25 -0.5 Z M 88.97223866780513 0.5 L 107.78029657999502 0.5 L 107.78029657999502 3.5 L 114.78029657999502 0 L 107.78029657999502 -3.5 L 107.78029657999502 -0.5 L 88.97223866780513 -0.5 Z"/><text text-anchor="middle" pointer-events="none" font-size="8px" fill="#000000" x="66.39014828999751" y="3" transform="rotate(180 66.39014828999751 0)" font-family="sans-serif">edited_by</text></g><g class="relationship" transform="translate(-228.31720141811945 -18.130291110776895) rotate(429.78171792170906)"><path class="outline" fill="#A5ABB6" stroke="none" d="M 25 0.5 L 47.35836954304578 0.5 L 47.35836954304578 -0.5 L 25 -0.5 Z M 103.56732340046766 0.5 L 125.92569294351344 0.5 L 125.92569294351344 3.5 L 132.92569294351344 0 L 125.92569294351344 -3.5 L 125.92569294351344 -0.5 L 103.56732340046766 -0.5 Z"/><text text-anchor="middle" pointer-events="none" font-size="8px" fill="#000000" x="75.46284647175672" y="3" font-family="sans-serif">published_in</text></g><g class="relationship" transform="translate(-29.15690209501585 168.43335574091657) rotate(194.86251003150602)"><path class="outline" fill="#A5ABB6" stroke="none" d="M 25 0.5 L 43.18856655103646 0.5 L 43.18856655103646 -0.5 L 25 -0.5 Z M 99.39752040845833 0.5 L 117.58608695949479 0.5 L 117.58608695949479 3.5 L 124.58608695949479 0 L 117.58608695949479 -3.5 L 117.58608695949479 -0.5 L 99.39752040845833 -0.5 Z"/><text text-anchor="middle" pointer-events="none" font-size="8px" fill="#000000" x="71.2930434797474" y="3" transform="rotate(180 71.2930434797474 0)" font-family="sans-serif">published_in</text></g></g><g class="layer nodes"><g class="node" transform="translate(75.3817945130912,85.65037809900421)"><circle class="outline" cx="0" cy="0" r="25" fill="#569480" stroke="#447666" stroke-width="2px"/><text text-anchor="middle" pointer-events="none" font-family="sans-serif" dy="1.5625" font-size="25" fill="#FFFFFF"/><text text-anchor="middle" pointer-events="none" y="5" font-size="10px" fill="#FFFFFF" font-family="sans-serif"> editor</text></g><g class="node" transform="translate(-173.73845494499614,130.064462254892)"><circle class="outline" cx="0" cy="0" r="25" fill="#F16667" stroke="#eb2728" stroke-width="2px"/><text text-anchor="middle" pointer-events="none" font-family="sans-serif" dy="1.5625" font-size="25" fill="#FFFFFF"/><text text-anchor="middle" pointer-events="none" y="5" font-size="10px" fill="#FFFFFF" font-family="sans-serif"> journal</text></g><g class="node" transform="translate(-21.48821921298807,-13.384084044816461)"><circle class="outline" cx="0" cy="0" r="25" fill="#569480" stroke="#447666" stroke-width="2px"/><text text-anchor="middle" pointer-events="none" font-family="sans-serif" dy="1.5625" font-size="25" fill="#FFFFFF"/><text text-anchor="middle" pointer-events="none" y="5" font-size="10px" fill="#FFFFFF" font-family="sans-serif"> author</text></g><g class="node" transform="translate(-234.17997008125383,182.60556758591716)"><circle class="outline" cx="0" cy="0" r="25" fill="#F16667" stroke="#eb2728" stroke-width="2px"/><text text-anchor="middle" pointer-events="none" font-family="sans-serif" dy="1.5625" font-size="25" fill="#FFFFFF"/><text text-anchor="middle" pointer-events="none" y="5" font-size="10px" fill="#FFFFFF" font-family="sans-serif"> publish…</text></g><g class="node" transform="translate(-116.90015200133968,73.8301438344551)"><circle class="outline" cx="0" cy="0" r="25" fill="#FFC454" stroke="#d7a013" stroke-width="2px"/><text text-anchor="middle" pointer-events="none" font-family="sans-serif" dy="1.5625" font-size="25" fill="#604A0E"/><text text-anchor="middle" pointer-events="none" y="5" font-size="10px" fill="#604A0E" font-family="sans-serif"> cite</text></g><g class="node" transform="translate(-228.31720141811945,-18.130291110776895)"><circle class="outline" cx="0" cy="0" r="25" fill="#4C8EDA" stroke="#2870c2" stroke-width="2px"/><text text-anchor="middle" pointer-events="none" font-family="sans-serif" dy="1.5625" font-size="25" fill="#FFFFFF"/><text text-anchor="middle" pointer-events="none" y="5" font-size="10px" fill="#FFFFFF" font-family="sans-serif"> procee…</text></g><g class="node" transform="translate(145.06995871774734,185.37294354160656)"><circle class="outline" cx="0" cy="0" r="25" fill="#F79767" stroke="#f36924" stroke-width="2px"/><text text-anchor="middle" pointer-events="none" font-family="sans-serif" dy="1.5625" font-size="25" fill="#FFFFFF"/><text text-anchor="middle" pointer-events="none" y="5" font-size="10px" fill="#FFFFFF" font-family="sans-serif"> keyword</text></g><g class="node" transform="translate(182.9999666728263,-3.550856942832418)"><circle class="outline" cx="0" cy="0" r="25" fill="#F16667" stroke="#eb2728" stroke-width="2px"/><text text-anchor="middle" pointer-events="none" font-family="sans-serif" dy="1.5625" font-size="25" fill="#FFFFFF"/><text text-anchor="middle" pointer-events="none" y="5" font-size="10px" fill="#FFFFFF" font-family="sans-serif"> inproce…</text></g><g class="node" transform="translate(-29.15690209501585,168.43335574091657)"><circle class="outline" cx="0" cy="0" r="25" fill="#DA7194" stroke="#cc3c6c" stroke-width="2px"/><text text-anchor="middle" pointer-events="none" font-family="sans-serif" dy="1.5625" font-size="25" fill="#FFFFFF"/><text text-anchor="middle" pointer-events="none" y="5" font-size="10px" fill="#FFFFFF" font-family="sans-serif"> article</text></g></g></svg>