<svg xmlns="http://www.w3.org/2000/svg" width="656.225341796875" height="362.5790710449219" viewBox="-272.52911376953125 -55.16429901123047 656.225341796875 362.5790710449219"><title>Neo4j Graph Visualization</title><desc>Created using Neo4j (http://www.neo4j.com/)</desc><g class="layer relationships"><g class="relationship" transform="translate(-243.52910811408054 226.43077711476838) rotate(284.8047591920622)"><path class="outline" fill="#A5ABB6" stroke="none" d="M 25 0.5 L 97.77610392335629 0.5 L 97.77610392335629 -0.5 L 25 -0.5 Z M 156.492523143327 0.5 L 229.26862706668328 0.5 L 229.26862706668328 3.5 L 236.26862706668328 0 L 229.26862706668328 -3.5 L 229.26862706668328 -0.5 L 156.492523143327 -0.5 Z"/><text text-anchor="middle" pointer-events="none" font-size="8px" fill="#000000" x="127.13431353334164" y="3" font-family="sans-serif">published_by</text></g><g class="relationship" transform="translate(-43.68339674568204 51.146905431287195) rotate(210.15303206667244)"><path class="outline" fill="#A5ABB6" stroke="none" d="M 25 0.5 L 44.09726030305177 0.5 L 44.09726030305177 -0.5 L 25 -0.5 Z M 102.81367952302247 0.5 L 121.91093982607424 0.5 L 121.91093982607424 3.5 L 128.91093982607424 0 L 121.91093982607424 -3.5 L 121.91093982607424 -0.5 L 102.81367952302247 -0.5 Z"/><text text-anchor="middle" pointer-events="none" font-size="8px" fill="#000000" x="73.45546991303712" y="3" transform="rotate(180 73.45546991303712 0)" font-family="sans-serif">published_by</text></g><g class="relationship" transform="translate(0.7694694447969042 -14.318595288469144) rotate(183.81724287080283)"><path class="outline" fill="#A5ABB6" stroke="none" d="M 25 0.5 L 56.10798051865383 0.5 L 56.10798051865383 -0.5 L 25 -0.5 Z M 114.82439973862454 0.5 L 145.93238025727837 0.5 L 145.93238025727837 3.5 L 152.93238025727837 0 L 145.93238025727837 -3.5 L 145.93238025727837 -0.5 L 114.82439973862454 -0.5 Z"/><text text-anchor="middle" pointer-events="none" font-size="8px" fill="#000000" x="85.46619012863918" y="3" transform="rotate(180 85.46619012863918 0)" font-family="sans-serif">published_by</text></g><g class="relationship" transform="translate(354.6962733174167 117.93153914094444) rotate(195.16989136724249)"><path class="outline" fill="#A5ABB6" stroke="none" d="M 25 0.5 L 242.4679870632031 0.5 L 242.4679870632031 -0.5 L 25 -0.5 Z M 301.1844062831738 0.5 L 518.6523933463769 0.5 L 518.6523933463769 3.5 L 525.6523933463769 0 L 518.6523933463769 -3.5 L 518.6523933463769 -0.5 L 301.1844062831738 -0.5 Z"/><text text-anchor="middle" pointer-events="none" font-size="8px" fill="#000000" x="271.82619667318846" y="3" transform="rotate(180 271.82619667318846 0)" font-family="sans-serif">published_by</text></g><g class="relationship" transform="translate(-144.49038524670084 80.24614982897913) rotate(253.12572858201548)"><path class="outline" fill="#A5ABB6" stroke="none" d="M 25 0.5 L 25.64387390751888 0.5 L 25.64387390751888 -0.5 L 25 -0.5 Z M 78.55432007451107 0.5 L 79.19819398202995 0.5 L 79.19819398202995 3.5 L 86.19819398202995 0 L 79.19819398202995 -3.5 L 79.19819398202995 -0.5 L 78.55432007451107 -0.5 Z"/><text text-anchor="middle" pointer-events="none" font-size="8px" fill="#000000" x="52.099096991014974" y="3" transform="rotate(180 52.099096991014974 0)" font-family="sans-serif">published…</text></g><g class="relationship" transform="translate(-144.49038524670084 80.24614982897913) rotate(366.39577058944633)"><path class="outline" fill="#D9C8AE" stroke="none" d="M 25 2.5 L 105.9402406158782 2.5 L 105.9402406158782 -2.5 L 25 -2.5 Z M 161.9402406158782 2.5 L 242.8804812317564 2.5 L 242.8804812317564 5.5 L 253.8804812317564 0 L 242.8804812317564 -5.5 L 242.8804812317564 -2.5 L 161.9402406158782 -2.5 Z"/><text text-anchor="middle" pointer-events="none" font-size="8px" fill="#000000" x="133.9402406158782" y="3" font-family="sans-serif">authored_by</text></g><g class="relationship" transform="translate(354.6962733174167 117.93153914094444) rotate(181.7075509054804)"><path class="outline" fill="#D9C8AE" stroke="none" d="M 25 2.5 L 77.57026620167127 2.5 L 77.57026620167127 -2.5 L 25 -2.5 Z M 133.57026620167127 2.5 L 186.14053240334255 2.5 L 186.14053240334255 5.5 L 197.14053240334255 0 L 186.14053240334255 -5.5 L 186.14053240334255 -2.5 L 133.57026620167127 -2.5 Z"/><text text-anchor="middle" pointer-events="none" font-size="8px" fill="#000000" x="105.57026620167127" y="3" transform="rotate(180 105.57026620167127 0)" font-family="sans-serif">authored_by</text></g><g class="relationship" transform="translate(343.0376206691997 29.539568483439723) rotate(518.7596840338495)"><path class="outline" fill="#D9C8AE" stroke="none" d="M 25 2.5 L 79.35817388704444 2.5 L 79.35817388704444 -2.5 L 25 -2.5 Z M 135.35817388704444 2.5 L 189.7163477740889 2.5 L 189.7163477740889 5.5 L 200.7163477740889 0 L 189.7163477740889 -5.5 L 189.7163477740889 -2.5 L 135.35817388704444 -2.5 Z"/><text text-anchor="middle" pointer-events="none" font-size="8px" fill="#000000" x="107.35817388704444" y="3" transform="rotate(180 107.35817388704444 0)" font-family="sans-serif">authored_by</text></g><g class="relationship" transform="translate(54.317219528364774 277.91517717935585) rotate(295.1830350912525)"><path class="outline" fill="#D9C8AE" stroke="none" d="M 25 2.5 L 58.5506150653307 2.5 L 58.5506150653307 -2.5 L 25 -2.5 Z M 114.5506150653307 2.5 L 148.1012301306614 2.5 L 148.1012301306614 5.5 L 159.1012301306614 0 L 148.1012301306614 -5.5 L 148.1012301306614 -2.5 L 114.5506150653307 -2.5 Z"/><text text-anchor="middle" pointer-events="none" font-size="8px" fill="#000000" x="86.5506150653307" y="3" font-family="sans-serif">authored_by</text></g><g class="relationship" transform="translate(-43.68339674568204 51.146905431287195) rotate(378.8393049807877)"><path class="outline" fill="#D9C8AE" stroke="none" d="M 25 2.5 L 59.659642329021196 2.5 L 59.659642329021196 -2.5 L 25 -2.5 Z M 115.6596423290212 2.5 L 150.3192846580424 2.5 L 150.3192846580424 5.5 L 161.3192846580424 0 L 150.3192846580424 -5.5 L 150.3192846580424 -2.5 L 115.6596423290212 -2.5 Z"/><text text-anchor="middle" pointer-events="none" font-size="8px" fill="#000000" x="87.6596423290212" y="3" font-family="sans-serif">authored_by</text></g><g class="relationship" transform="translate(327.0024314421436 205.80189966261776) rotate(205.92846714387673)"><path class="outline" fill="#D9C8AE" stroke="none" d="M 25 2.5 L 74.55029678326973 2.5 L 74.55029678326973 -2.5 L 25 -2.5 Z M 130.55029678326974 2.5 L 180.10059356653946 2.5 L 180.10059356653946 5.5 L 191.10059356653946 0 L 180.10059356653946 -5.5 L 180.10059356653946 -2.5 L 130.55029678326974 -2.5 Z"/><text text-anchor="middle" pointer-events="none" font-size="8px" fill="#000000" x="102.55029678326973" y="3" transform="rotate(180 102.55029678326973 0)" font-family="sans-serif">authored_by</text></g><g class="relationship" transform="translate(-243.52910811408054 226.43077711476838) rotate(342.9849942069261)"><path class="outline" fill="#D9C8AE" stroke="none" d="M 25 2.5 L 163.20174529720347 2.5 L 163.20174529720347 -2.5 L 25 -2.5 Z M 219.20174529720347 2.5 L 357.40349059440695 2.5 L 357.40349059440695 5.5 L 368.40349059440695 0 L 357.40349059440695 -5.5 L 357.40349059440695 -2.5 L 219.20174529720347 -2.5 Z"/><text text-anchor="middle" pointer-events="none" font-size="8px" fill="#000000" x="191.20174529720347" y="3" font-family="sans-serif">authored_by</text></g><g class="relationship" transform="translate(0.7694694447969042 -14.318595288469144) rotate(403.60876780247327)"><path class="outline" fill="#D9C8AE" stroke="none" d="M 25 2.5 L 57.572399512544436 2.5 L 57.572399512544436 -2.5 L 25 -2.5 Z M 113.57239951254444 2.5 L 146.14479902508887 2.5 L 146.14479902508887 5.5 L 157.14479902508887 0 L 146.14479902508887 -5.5 L 146.14479902508887 -2.5 L 113.57239951254444 -2.5 Z"/><text text-anchor="middle" pointer-events="none" font-size="8px" fill="#000000" x="85.57239951254444" y="3" font-family="sans-serif">authored_by</text></g><g class="relationship" transform="translate(343.0376206691997 29.539568483439723) rotate(188.15568590220522)"><path class="outline" fill="#A5ABB6" stroke="none" d="M 25 0.5 L 58.64087838744642 0.5 L 58.64087838744642 -0.5 L 25 -0.5 Z M 117.26774377440931 0.5 L 150.90862216185573 0.5 L 150.90862216185573 3.5 L 157.90862216185573 0 L 150.90862216185573 -3.5 L 150.90862216185573 -0.5 L 117.26774377440931 -0.5 Z"/><text text-anchor="middle" pointer-events="none" font-size="8px" fill="#000000" x="87.95431108092787" y="3" transform="rotate(180 87.95431108092787 0)" font-family="sans-serif">submitted_at</text></g><g class="relationship" transform="translate(0.7694694447969042 -14.318595288469144) rotate(366.3394797590858)"><path class="outline" fill="#A5ABB6" stroke="none" d="M 25 0.5 L 48.28719976689604 0.5 L 48.28719976689604 -0.5 L 25 -0.5 Z M 106.91406515385893 0.5 L 130.20126492075497 0.5 L 130.20126492075497 3.5 L 137.20126492075497 0 L 130.20126492075497 -3.5 L 130.20126492075497 -0.5 L 106.91406515385893 -0.5 Z"/><text text-anchor="middle" pointer-events="none" font-size="8px" fill="#000000" x="77.60063246037748" y="3" font-family="sans-serif">submitted_at</text></g><g class="relationship" transform="translate(354.6962733174167 117.93153914094444) rotate(210.68082790305266)"><path class="outline" fill="#A5ABB6" stroke="none" d="M 25 0.5 L 79.22855283595487 0.5 L 79.22855283595487 -0.5 L 25 -0.5 Z M 137.85541822291776 0.5 L 192.08397105887263 0.5 L 192.08397105887263 3.5 L 199.08397105887263 0 L 192.08397105887263 -3.5 L 192.08397105887263 -0.5 L 137.85541822291776 -0.5 Z"/><text text-anchor="middle" pointer-events="none" font-size="8px" fill="#000000" x="108.54198552943632" y="3" transform="rotate(180 108.54198552943632 0)" font-family="sans-serif">submitted_at</text></g><g class="relationship" transform="translate(327.0024314421436 205.80189966261776) rotate(539.9584423904953)"><path class="outline" fill="#A5ABB6" stroke="none" d="M 25 0.5 L 129.04839341065139 0.5 L 129.04839341065139 -0.5 L 25 -0.5 Z M 183.1677972497627 0.5 L 287.2161906604141 0.5 L 287.2161906604141 3.5 L 294.2161906604141 0 L 287.2161906604141 -3.5 L 287.2161906604141 -0.5 L 183.1677972497627 -0.5 Z"/><text text-anchor="middle" pointer-events="none" font-size="8px" fill="#000000" x="156.10809533020705" y="3" transform="rotate(180 156.10809533020705 0)" font-family="sans-serif">has_citation</text></g><g class="relationship" transform="translate(-43.68339674568204 51.146905431287195) rotate(431.6180434401624)"><path class="outline" fill="#A5ABB6" stroke="none" d="M 25 0.5 L 51.04754122079373 0.5 L 51.04754122079373 -0.5 L 25 -0.5 Z M 105.16694505990506 0.5 L 131.2144862806988 0.5 L 131.2144862806988 3.5 L 138.2144862806988 0 L 131.2144862806988 -3.5 L 131.2144862806988 -0.5 L 105.16694505990506 -0.5 Z"/><text text-anchor="middle" pointer-events="none" font-size="8px" fill="#000000" x="78.1072431403494" y="3" font-family="sans-serif">has_citation</text></g><g class="relationship" transform="translate(-144.49038524670084 80.24614982897913) rotate(399.5582095349731)"><path class="outline" fill="#A5ABB6" stroke="none" d="M 25 0.5 L 68.19585098291854 0.5 L 68.19585098291854 -0.5 L 25 -0.5 Z M 122.31525482202987 0.5 L 165.51110580494841 0.5 L 165.51110580494841 3.5 L 172.51110580494841 0 L 165.51110580494841 -3.5 L 165.51110580494841 -0.5 L 122.31525482202987 -0.5 Z"/><text text-anchor="middle" pointer-events="none" font-size="8px" fill="#000000" x="95.25555290247421" y="3" font-family="sans-serif">has_citation</text></g><g class="relationship" transform="translate(54.317219528364774 277.91517717935585) rotate(237.08398345397165)"><path class="outline" fill="#A5ABB6" stroke="none" d="M 25 0.5 L 25.246704159842608 0.5 L 25.246704159842608 -0.5 L 25 -0.5 Z M 53.381033002005694 0.5 L 53.6277371618483 0.5 L 53.6277371618483 3.5 L 60.6277371618483 0 L 53.6277371618483 -3.5 L 53.6277371618483 -0.5 L 53.381033002005694 -0.5 Z"/><text text-anchor="middle" pointer-events="none" font-size="8px" fill="#000000" x="39.31386858092415" y="3" transform="rotate(180 39.31386858092415 0)" font-family="sans-serif">has…</text></g><g class="relationship" transform="translate(354.6962733174167 117.93153914094444) rotate(525.7503118129247)"><path class="outline" fill="#A5ABB6" stroke="none" d="M 25 0.5 L 148.401506201277 0.5 L 148.401506201277 -0.5 L 25 -0.5 Z M 202.52091004038832 0.5 L 325.9224162416653 0.5 L 325.9224162416653 3.5 L 332.9224162416653 0 L 325.9224162416653 -3.5 L 325.9224162416653 -0.5 L 202.52091004038832 -0.5 Z"/><text text-anchor="middle" pointer-events="none" font-size="8px" fill="#000000" x="175.46120812083265" y="3" transform="rotate(180 175.46120812083265 0)" font-family="sans-serif">has_citation</text></g><g class="relationship" transform="translate(-243.52910811408054 226.43077711476838) rotate(355.35991214759224)"><path class="outline" fill="#A5ABB6" stroke="none" d="M 25 0.5 L 95.5112091366043 0.5 L 95.5112091366043 -0.5 L 25 -0.5 Z M 149.63061297571562 0.5 L 220.14182211231991 0.5 L 220.14182211231991 3.5 L 227.14182211231991 0 L 220.14182211231991 -3.5 L 220.14182211231991 -0.5 L 149.63061297571562 -0.5 Z"/><text text-anchor="middle" pointer-events="none" font-size="8px" fill="#000000" x="122.57091105615996" y="3" font-family="sans-serif">has_citation</text></g><g class="relationship" transform="translate(354.6962733174167 117.93153914094444) rotate(492.86044176069566)"><path class="outline" fill="#A5ABB6" stroke="none" d="M 25 0.5 L 83.3861452781749 0.5 L 83.3861452781749 -0.5 L 25 -0.5 Z M 128.55032603379013 0.5 L 186.93647131196502 0.5 L 186.93647131196502 3.5 L 193.93647131196502 0 L 186.93647131196502 -3.5 L 186.93647131196502 -0.5 L 128.55032603379013 -0.5 Z"/><text text-anchor="middle" pointer-events="none" font-size="8px" fill="#000000" x="105.96823565598251" y="3" transform="rotate(180 105.96823565598251 0)" font-family="sans-serif">edited_by</text></g><g class="relationship" transform="translate(327.0024314421436 205.80189966261776) rotate(509.07975659914246)"><path class="outline" fill="#A5ABB6" stroke="none" d="M 25 0.5 L 44.574374140469175 0.5 L 44.574374140469175 -0.5 L 25 -0.5 Z M 89.73855489608441 0.5 L 109.31292903655358 0.5 L 109.31292903655358 3.5 L 116.31292903655358 0 L 109.31292903655358 -3.5 L 109.31292903655358 -0.5 L 89.73855489608441 -0.5 Z"/><text text-anchor="middle" pointer-events="none" font-size="8px" fill="#000000" x="67.15646451827679" y="3" transform="rotate(180 67.15646451827679 0)" font-family="sans-serif">edited_by</text></g><g class="relationship" transform="translate(54.317219528364774 277.91517717935585) rotate(360.18899051292686)"><path class="outline" fill="#A5ABB6" stroke="none" d="M 25 0.5 L 49.64591876446889 0.5 L 49.64591876446889 -0.5 L 25 -0.5 Z M 94.81009952008412 0.5 L 119.45601828455301 0.5 L 119.45601828455301 3.5 L 126.45601828455301 0 L 119.45601828455301 -3.5 L 119.45601828455301 -0.5 L 94.81009952008412 -0.5 Z"/><text text-anchor="middle" pointer-events="none" font-size="8px" fill="#000000" x="72.2280091422765" y="3" font-family="sans-serif">edited_by</text></g><g class="relationship" transform="translate(-43.68339674568204 51.146905431287195) rotate(402.3352282009823)"><path class="outline" fill="#A5ABB6" stroke="none" d="M 25 0.5 L 142.6476320243755 0.5 L 142.6476320243755 -0.5 L 25 -0.5 Z M 187.81181277999073 0.5 L 305.4594448043662 0.5 L 305.4594448043662 3.5 L 312.4594448043662 0 L 305.4594448043662 -3.5 L 305.4594448043662 -0.5 L 187.81181277999073 -0.5 Z"/><text text-anchor="middle" pointer-events="none" font-size="8px" fill="#000000" x="165.2297224021831" y="3" font-family="sans-serif">edited_by</text></g><g class="relationship" transform="translate(-243.52910811408054 226.43077711476838) rotate(366.5997505978874)"><path class="outline" fill="#A5ABB6" stroke="none" d="M 25 0.5 L 200.06730251382396 0.5 L 200.06730251382396 -0.5 L 25 -0.5 Z M 245.2314832694392 0.5 L 420.29878578326316 0.5 L 420.29878578326316 3.5 L 427.29878578326316 0 L 420.29878578326316 -3.5 L 420.29878578326316 -0.5 L 245.2314832694392 -0.5 Z"/><text text-anchor="middle" pointer-events="none" font-size="8px" fill="#000000" x="222.64939289163158" y="3" font-family="sans-serif">edited_by</text></g><g class="relationship" transform="translate(-243.52910811408054 226.43077711476838) rotate(319.25551422106537)"><path class="outline" fill="#A5ABB6" stroke="none" d="M 25 0.5 L 28.408641767939265 0.5 L 28.408641767939265 -0.5 L 25 -0.5 Z M 84.61759562536113 0.5 L 88.0262373933004 0.5 L 88.0262373933004 3.5 L 95.0262373933004 0 L 88.0262373933004 -3.5 L 88.0262373933004 -0.5 L 84.61759562536113 -0.5 Z"/><text text-anchor="middle" pointer-events="none" font-size="8px" fill="#000000" x="56.5131186966502" y="3" font-family="sans-serif">published_in</text></g><g class="relationship" transform="translate(-43.68339674568204 51.146905431287195) rotate(498.3268125896624)"><path class="outline" fill="#A5ABB6" stroke="none" d="M 25 0.5 L 41.299052926623915 0.5 L 41.299052926623915 -0.5 L 25 -0.5 Z M 97.50800678404579 0.5 L 113.8070597106697 0.5 L 113.8070597106697 3.5 L 120.8070597106697 0 L 113.8070597106697 -3.5 L 113.8070597106697 -0.5 L 97.50800678404579 -0.5 Z"/><text text-anchor="middle" pointer-events="none" font-size="8px" fill="#000000" x="69.40352985533485" y="3" transform="rotate(180 69.40352985533485 0)" font-family="sans-serif">published_in</text></g></g><g class="layer nodes"><g class="node" transform="translate(205.7724138818322,278.41475496535753)"><circle class="outline" cx="0" cy="0" r="25" fill="#F16667" stroke="#eb2728" stroke-width="2px"/><text text-anchor="middle" pointer-events="none" font-family="sans-serif" dy="1.5625" font-size="25" fill="#FFFFFF"/><text text-anchor="middle" pointer-events="none" y="5" font-size="10px" fill="#FFFFFF" font-family="sans-serif"> editor</text></g><g class="node" transform="translate(132.65438424362247,111.3122013355933)"><circle class="outline" cx="0" cy="0" r="25" fill="#569480" stroke="#447666" stroke-width="2px"/><text text-anchor="middle" pointer-events="none" font-family="sans-serif" dy="1.5625" font-size="25" fill="#FFFFFF"/><text text-anchor="middle" pointer-events="none" y="5" font-size="10px" fill="#FFFFFF" font-family="sans-serif"> </text></g><g class="node" transform="translate(354.6962733174167,117.93153914094444)"><circle class="outline" cx="0" cy="0" r="25" fill="#F16667" stroke="#eb2728" stroke-width="2px"/><text text-anchor="middle" pointer-events="none" font-family="sans-serif" dy="1.5625" font-size="25" fill="#FFFFFF"/><text text-anchor="middle" pointer-events="none" y="5" font-size="10px" fill="#FFFFFF" font-family="sans-serif"> book</text></g><g class="node" transform="translate(0.7694694447969042,-14.318595288469144)"><circle class="outline" cx="0" cy="0" r="25" fill="#F16667" stroke="#eb2728" stroke-width="2px"/><text text-anchor="middle" pointer-events="none" font-family="sans-serif" dy="1.5625" font-size="25" fill="#FFFFFF"/><text text-anchor="middle" pointer-events="none" y="5" font-size="10px" fill="#FFFFFF" font-family="sans-serif"> </text></g><g class="node" transform="translate(327.0024314421436,205.80189966261776)"><circle class="outline" cx="0" cy="0" r="25" fill="#F16667" stroke="#eb2728" stroke-width="2px"/><text text-anchor="middle" pointer-events="none" font-family="sans-serif" dy="1.5625" font-size="25" fill="#FFFFFF"/><text text-anchor="middle" pointer-events="none" y="5" font-size="10px" fill="#FFFFFF" font-family="sans-serif"> </text></g><g class="node" transform="translate(-43.68339674568204,51.146905431287195)"><circle class="outline" cx="0" cy="0" r="25" fill="#DA7194" stroke="#cc3c6c" stroke-width="2px"/><text text-anchor="middle" pointer-events="none" font-family="sans-serif" dy="1.5625" font-size="25" fill="#FFFFFF"/><text text-anchor="middle" pointer-events="none" y="5" font-size="10px" fill="#FFFFFF" font-family="sans-serif"> </text></g><g class="node" transform="translate(-152.59389353566715,148.09123146654025)"><circle class="outline" cx="0" cy="0" r="25" fill="#F16667" stroke="#eb2728" stroke-width="2px"/><text text-anchor="middle" pointer-events="none" font-family="sans-serif" dy="1.5625" font-size="25" fill="#FFFFFF"/><text text-anchor="middle" pointer-events="none" y="5" font-size="10px" fill="#FFFFFF" font-family="sans-serif"> </text></g><g class="node" transform="translate(-144.49038524670084,80.24614982897913)"><circle class="outline" cx="0" cy="0" r="25" fill="#F16667" stroke="#eb2728" stroke-width="2px"/><text text-anchor="middle" pointer-events="none" font-family="sans-serif" dy="1.5625" font-size="25" fill="#FFFFFF"/><text text-anchor="middle" pointer-events="none" y="5" font-size="10px" fill="#FFFFFF" font-family="sans-serif"> incollec…</text></g><g class="node" transform="translate(161.97889096595483,3.591534658199521)"><circle class="outline" cx="0" cy="0" r="25" fill="#F16667" stroke="#eb2728" stroke-width="2px"/><text text-anchor="middle" pointer-events="none" font-family="sans-serif" dy="1.5625" font-size="25" fill="#FFFFFF"/><text text-anchor="middle" pointer-events="none" y="5" font-size="10px" fill="#FFFFFF" font-family="sans-serif"> school</text></g><g class="node" transform="translate(54.317219528364774,277.91517717935585)"><circle class="outline" cx="0" cy="0" r="25" fill="#F16667" stroke="#eb2728" stroke-width="2px"/><text text-anchor="middle" pointer-events="none" font-family="sans-serif" dy="1.5625" font-size="25" fill="#FFFFFF"/><text text-anchor="middle" pointer-events="none" y="5" font-size="10px" fill="#FFFFFF" font-family="sans-serif"> </text></g><g class="node" transform="translate(343.0376206691997,29.539568483439723)"><circle class="outline" cx="0" cy="0" r="25" fill="#F16667" stroke="#eb2728" stroke-width="2px"/><text text-anchor="middle" pointer-events="none" font-family="sans-serif" dy="1.5625" font-size="25" fill="#FFFFFF"/><text text-anchor="middle" pointer-events="none" y="5" font-size="10px" fill="#FFFFFF" font-family="sans-serif"> </text></g><g class="node" transform="translate(7.786324749137464,206.0334326088249)"><circle class="outline" cx="0" cy="0" r="25" fill="#F16667" stroke="#eb2728" stroke-width="2px"/><text text-anchor="middle" pointer-events="none" font-family="sans-serif" dy="1.5625" font-size="25" fill="#FFFFFF"/><text text-anchor="middle" pointer-events="none" y="5" font-size="10px" fill="#FFFFFF" font-family="sans-serif"> cite</text></g><g class="node" transform="translate(-176.76816396891428,-26.164297710841822)"><circle class="outline" cx="0" cy="0" r="25" fill="#F16667" stroke="#eb2728" stroke-width="2px"/><text text-anchor="middle" pointer-events="none" font-family="sans-serif" dy="1.5625" font-size="25" fill="#FFFFFF"/><text text-anchor="middle" pointer-events="none" y="5" font-size="10px" fill="#FFFFFF" font-family="sans-serif"> publish…</text></g><g class="node" transform="translate(-243.52910811408054,226.43077711476838)"><circle class="outline" cx="0" cy="0" r="25" fill="#F16667" stroke="#eb2728" stroke-width="2px"/><text text-anchor="middle" pointer-events="none" font-family="sans-serif" dy="1.5625" font-size="25" fill="#FFFFFF"/><text text-anchor="middle" pointer-events="none" y="5" font-size="10px" fill="#FFFFFF" font-family="sans-serif"> procee…</text></g></g></svg>