<svg xmlns="http://www.w3.org/2000/svg" width="440.1414794921875" height="230.9204559326172" viewBox="-190.56842041015625 -8.020265579223633 440.1414794921875 230.9204559326172"><title>Neo4j Graph Visualization</title><desc>Created using Neo4j (http://www.neo4j.com/)</desc><g class="layer relationships"><g class="relationship" transform="translate(-0.5436106005744783 25.759867342253983) rotate(358.69603196150877)"><path class="outline" fill="#A5ABB6" stroke="none" d="M 25 0.5 L 72.16930678770636 0.5 L 72.16930678770636 -0.5 L 25 -0.5 Z M 130.88572600767708 0.5 L 178.05503279538343 0.5 L 178.05503279538343 3.5 L 185.05503279538343 0 L 178.05503279538343 -3.5 L 178.05503279538343 -0.5 L 130.88572600767708 -0.5 Z"/><text text-anchor="middle" pointer-events="none" font-size="8px" fill="#000000" x="101.52751639769171" y="3" font-family="sans-serif">published_by</text></g><g class="relationship" transform="translate(220.57304665850597 184.03256496485724) rotate(266.09993199020334)"><path class="outline" fill="#A5ABB6" stroke="none" d="M 25 0.5 L 48.85744260079598 0.5 L 48.85744260079598 -0.5 L 25 -0.5 Z M 107.57386182076668 0.5 L 131.43130442156266 0.5 L 131.43130442156266 3.5 L 138.43130442156266 0 L 131.43130442156266 -3.5 L 131.43130442156266 -0.5 L 107.57386182076668 -0.5 Z"/><text text-anchor="middle" pointer-events="none" font-size="8px" fill="#000000" x="78.21565221078133" y="3" transform="rotate(180 78.21565221078133 0)" font-family="sans-serif">published_by</text></g><g class="relationship" transform="translate(-161.56841538916268 193.9001973586696) rotate(270.54326267581575)"><path class="outline" fill="#D9C8AE" stroke="none" d="M 25 2.5 L 45.38861282868382 2.5 L 45.38861282868382 -2.5 L 25 -2.5 Z M 101.38861282868382 2.5 L 121.77722565736764 2.5 L 121.77722565736764 5.5 L 132.77722565736764 0 L 121.77722565736764 -5.5 L 121.77722565736764 -2.5 L 101.38861282868382 -2.5 Z"/><text text-anchor="middle" pointer-events="none" font-size="8px" fill="#000000" x="73.38861282868382" y="3" font-family="sans-serif">authored_by</text></g><g class="relationship" transform="translate(220.57304665850597 184.03256496485724) rotate(201.23399025272482)"><path class="outline" fill="#D9C8AE" stroke="none" d="M 25 2.5 L 170.68504766035025 2.5 L 170.68504766035025 -2.5 L 25 -2.5 Z M 226.68504766035025 2.5 L 372.3700953207005 2.5 L 372.3700953207005 5.5 L 383.3700953207005 0 L 372.3700953207005 -5.5 L 372.3700953207005 -2.5 L 226.68504766035025 -2.5 Z"/><text text-anchor="middle" pointer-events="none" font-size="8px" fill="#000000" x="198.68504766035025" y="3" transform="rotate(180 198.68504766035025 0)" font-family="sans-serif">authored_by</text></g><g class="relationship" transform="translate(-0.5436106005744783 25.759867342253983) rotate(536.2807117364887)"><path class="outline" fill="#D9C8AE" stroke="none" d="M 25 2.5 L 46.4327650809517 2.5 L 46.4327650809517 -2.5 L 25 -2.5 Z M 102.4327650809517 2.5 L 123.8655301619034 2.5 L 123.8655301619034 5.5 L 134.8655301619034 0 L 123.8655301619034 -5.5 L 123.8655301619034 -2.5 L 102.4327650809517 -2.5 Z"/><text text-anchor="middle" pointer-events="none" font-size="8px" fill="#000000" x="74.4327650809517" y="3" transform="rotate(180 74.4327650809517 0)" font-family="sans-serif">authored_by</text></g><g class="relationship" transform="translate(220.57304665850597 184.03256496485724) rotate(193.54948349631616)"><path class="outline" fill="#A5ABB6" stroke="none" d="M 25 0.5 L 125.0856656002544 0.5 L 125.0856656002544 -0.5 L 25 -0.5 Z M 179.20506943936573 0.5 L 279.29073503962013 0.5 L 279.29073503962013 3.5 L 286.29073503962013 0 L 279.29073503962013 -3.5 L 279.29073503962013 -0.5 L 179.20506943936573 -0.5 Z"/><text text-anchor="middle" pointer-events="none" font-size="8px" fill="#000000" x="152.14536751981007" y="3" transform="rotate(180 152.14536751981007 0)" font-family="sans-serif">has_citation</text></g><g class="relationship" transform="translate(-0.5436106005744783 25.759867342253983) rotate(493.68445007865535)"><path class="outline" fill="#A5ABB6" stroke="none" d="M 25 0.5 L 28.44699261348385 0.5 L 28.44699261348385 -0.5 L 25 -0.5 Z M 82.56639645259517 0.5 L 86.01338906607903 0.5 L 86.01338906607903 3.5 L 93.01338906607903 0 L 86.01338906607903 -3.5 L 86.01338906607903 -0.5 L 82.56639645259517 -0.5 Z"/><text text-anchor="middle" pointer-events="none" font-size="8px" fill="#000000" x="55.506694533039514" y="3" transform="rotate(180 55.506694533039514 0)" font-family="sans-serif">has_citation</text></g><g class="relationship" transform="translate(-161.56841538916268 193.9001973586696) rotate(313.840986212655)"><path class="outline" fill="#A5ABB6" stroke="none" d="M 25 0.5 L 26.83834943047136 0.5 L 26.83834943047136 -0.5 L 25 -0.5 Z M 80.9577532695827 0.5 L 82.79610270005405 0.5 L 82.79610270005405 3.5 L 89.79610270005405 0 L 82.79610270005405 -3.5 L 82.79610270005405 -0.5 L 80.9577532695827 -0.5 Z"/><text text-anchor="middle" pointer-events="none" font-size="8px" fill="#000000" x="53.898051350027025" y="3" font-family="sans-serif">has_citation</text></g><g class="relationship" transform="translate(-161.56841538916268 193.9001973586696) rotate(358.7736017484955)"><path class="outline" fill="#A5ABB6" stroke="none" d="M 25 0.5 L 56.83481887332013 0.5 L 56.83481887332013 -0.5 L 25 -0.5 Z M 101.99899962893537 0.5 L 133.8338185022555 0.5 L 133.8338185022555 3.5 L 140.8338185022555 0 L 133.8338185022555 -3.5 L 133.8338185022555 -0.5 L 101.99899962893537 -0.5 Z"/><text text-anchor="middle" pointer-events="none" font-size="8px" fill="#000000" x="79.41690925112775" y="3" font-family="sans-serif">edited_by</text></g><g class="relationship" transform="translate(-0.5436106005744783 25.759867342253983) rotate(448.3396227269049)"><path class="outline" fill="#A5ABB6" stroke="none" d="M 25 0.5 L 56.247966995823006 0.5 L 56.247966995823006 -0.5 L 25 -0.5 Z M 101.41214775143824 0.5 L 132.66011474726125 0.5 L 132.66011474726125 3.5 L 139.66011474726125 0 L 132.66011474726125 -3.5 L 132.66011474726125 -0.5 L 101.41214775143824 -0.5 Z"/><text text-anchor="middle" pointer-events="none" font-size="8px" fill="#000000" x="78.83005737363062" y="3" font-family="sans-serif">edited_by</text></g><g class="relationship" transform="translate(220.57304665850597 184.03256496485724) rotate(538.3271765446837)"><path class="outline" fill="#A5ABB6" stroke="none" d="M 25 0.5 L 82.13684615905395 0.5 L 82.13684615905395 -0.5 L 25 -0.5 Z M 127.30102691466918 0.5 L 184.43787307372313 0.5 L 184.43787307372313 3.5 L 191.43787307372313 0 L 184.43787307372313 -3.5 L 184.43787307372313 -0.5 L 127.30102691466918 -0.5 Z"/><text text-anchor="middle" pointer-events="none" font-size="8px" fill="#000000" x="104.71893653686156" y="3" transform="rotate(180 104.71893653686156 0)" font-family="sans-serif">edited_by</text></g><g class="relationship" transform="translate(-0.5436106005744783 25.759867342253983) rotate(387.66363654887795)"><path class="outline" fill="#A5ABB6" stroke="none" d="M 25 0.5 L 28.944488369823915 0.5 L 28.944488369823915 -0.5 L 25 -0.5 Z M 85.15344222724579 0.5 L 89.0979305970697 0.5 L 89.0979305970697 3.5 L 96.0979305970697 0 L 89.0979305970697 -3.5 L 89.0979305970697 -0.5 L 85.15344222724579 -0.5 Z"/><text text-anchor="middle" pointer-events="none" font-size="8px" fill="#000000" x="57.04896529853485" y="3" font-family="sans-serif">published_in</text></g><g class="relationship" transform="translate(220.57304665850597 184.03256496485724) rotate(221.86852778371116)"><path class="outline" fill="#A5ABB6" stroke="none" d="M 25 0.5 L 44.845730867299636 0.5 L 44.845730867299636 -0.5 L 25 -0.5 Z M 101.05468472472151 0.5 L 120.90041559202115 0.5 L 120.90041559202115 3.5 L 127.90041559202115 0 L 120.90041559202115 -3.5 L 120.90041559202115 -0.5 L 101.05468472472151 -0.5 Z"/><text text-anchor="middle" pointer-events="none" font-size="8px" fill="#000000" x="72.95020779601057" y="3" transform="rotate(180 72.95020779601057 0)" font-family="sans-serif">published_in</text></g></g><g class="layer nodes"><g class="node" transform="translate(4.227415298965738,190.35084735163105)"><circle class="outline" cx="0" cy="0" r="25" fill="#569480" stroke="#447666" stroke-width="2px"/><text text-anchor="middle" pointer-events="none" font-family="sans-serif" dy="1.5625" font-size="25" fill="#FFFFFF"/><text text-anchor="middle" pointer-events="none" y="5" font-size="10px" fill="#FFFFFF" font-family="sans-serif"> editor</text></g><g class="node" transform="translate(106.7114296618522,81.98321776890451)"><circle class="outline" cx="0" cy="0" r="25" fill="#F16667" stroke="#eb2728" stroke-width="2px"/><text text-anchor="middle" pointer-events="none" font-family="sans-serif" dy="1.5625" font-size="25" fill="#FFFFFF"/><text text-anchor="middle" pointer-events="none" y="5" font-size="10px" fill="#FFFFFF" font-family="sans-serif"> journal</text></g><g class="node" transform="translate(-160.07243795076678,36.130063975827724)"><circle class="outline" cx="0" cy="0" r="25" fill="#569480" stroke="#447666" stroke-width="2px"/><text text-anchor="middle" pointer-events="none" font-family="sans-serif" dy="1.5625" font-size="25" fill="#FFFFFF"/><text text-anchor="middle" pointer-events="none" y="5" font-size="10px" fill="#FFFFFF" font-family="sans-serif"> author</text></g><g class="node" transform="translate(209.45702544159136,20.979735068413596)"><circle class="outline" cx="0" cy="0" r="25" fill="#F16667" stroke="#eb2728" stroke-width="2px"/><text text-anchor="middle" pointer-events="none" font-family="sans-serif" dy="1.5625" font-size="25" fill="#FFFFFF"/><text text-anchor="middle" pointer-events="none" y="5" font-size="10px" fill="#FFFFFF" font-family="sans-serif"> publish…</text></g><g class="node" transform="translate(-82.05382680905169,111.1017952119069)"><circle class="outline" cx="0" cy="0" r="25" fill="#FFC454" stroke="#d7a013" stroke-width="2px"/><text text-anchor="middle" pointer-events="none" font-family="sans-serif" dy="1.5625" font-size="25" fill="#604A0E"/><text text-anchor="middle" pointer-events="none" y="5" font-size="10px" fill="#604A0E" font-family="sans-serif"> cite</text></g><g class="node" transform="translate(-0.5436106005744783,25.759867342253983)"><circle class="outline" cx="0" cy="0" r="25" fill="#4C8EDA" stroke="#2870c2" stroke-width="2px"/><text text-anchor="middle" pointer-events="none" font-family="sans-serif" dy="1.5625" font-size="25" fill="#FFFFFF"/><text text-anchor="middle" pointer-events="none" y="5" font-size="10px" fill="#FFFFFF" font-family="sans-serif"> procee…</text></g><g class="node" transform="translate(-161.56841538916268,193.9001973586696)"><circle class="outline" cx="0" cy="0" r="25" fill="#F16667" stroke="#eb2728" stroke-width="2px"/><text text-anchor="middle" pointer-events="none" font-family="sans-serif" dy="1.5625" font-size="25" fill="#FFFFFF"/><text text-anchor="middle" pointer-events="none" y="5" font-size="10px" fill="#FFFFFF" font-family="sans-serif"> inproce…</text></g><g class="node" transform="translate(220.57304665850597,184.03256496485724)"><circle class="outline" cx="0" cy="0" r="25" fill="#DA7194" stroke="#cc3c6c" stroke-width="2px"/><text text-anchor="middle" pointer-events="none" font-family="sans-serif" dy="1.5625" font-size="25" fill="#FFFFFF"/><text text-anchor="middle" pointer-events="none" y="5" font-size="10px" fill="#FFFFFF" font-family="sans-serif"> article</text></g></g></svg>